<svg width="100" height="98" viewBox="0 0 100 98" fill="none" xmlns="http://www.w3.org/2000/svg">
<g clip-path="url(#clip0_101_17)">
<path d="M37.2709 63.8364C37.3489 63.2897 37.3489 62.7427 37.3489 62.1959C37.3489 59.6959 36.4912 57.3524 35.0876 55.5555C37.1929 57.4304 39.922 58.6805 42.8849 58.993L43.1968 59.0709C43.7426 59.4616 44.4444 60.0865 45.2241 60.7115L52.0077 74.7735C52.2416 75.6327 52.2416 76.3359 52.3196 76.8826C52.3196 76.8826 52.3196 76.5702 52.4756 76.1015L52.7874 76.8826L54.5808 69.2269C55.2046 67.7425 55.8284 66.2583 56.4522 65.3206C58.4015 68.1331 61.2865 70.1643 64.7173 71.0236C64.5613 71.4142 64.4834 71.961 64.3274 72.2735C58.7914 80.0858 59.1812 96.4912 59.1812 96.4912H44.9902C44.9902 96.4912 45.8479 79.5388 42.573 75.0078V74.9296C41.6374 72.1955 40.3898 69.6955 38.5964 67.5082C38.2066 66.4144 37.7387 65.0863 37.2709 63.8364Z" fill="#C2B6FF"/>
<path d="M59.1145 97.2709H44.9884C44.5227 97.2709 44.2122 96.9598 44.2122 96.4931C44.2122 87.4699 43.824 81.1693 41.8837 75.4132C41.8837 75.3354 41.8061 75.2576 41.8061 75.1799V75.1021C40.8747 72.3797 39.6328 70.1239 38.0028 68.1015C37.4595 67.4791 36.9163 66.8569 36.2954 66.2346C35.9849 65.9235 35.9849 65.4567 36.2954 65.1456C36.6057 64.8344 37.1895 63.8244 37.5 64.1355C38.1984 64.8355 38.7014 66.468 39.2447 67.168C40.9523 69.3459 42.3494 71.835 43.3584 74.7132C43.3584 74.791 43.4359 74.8688 43.4359 74.9465V75.0243C45.3765 80.7804 45.8422 87.0033 45.8422 95.7151H58.4161C58.4161 92.2927 58.7264 78.9136 63.6938 71.9128C63.7714 71.835 63.8492 71.6795 63.9268 71.6017C64.0819 71.4461 64.1595 71.2128 64.3149 71.0572C64.5476 70.7461 65.0909 70.6684 65.4014 70.9017C65.712 71.135 65.7895 71.6795 65.5566 71.9908C65.479 72.0686 65.4014 72.2241 65.2463 72.3797C65.1687 72.5352 65.0909 72.613 65.0133 72.7686C59.6578 80.236 60.0459 96.2596 60.0459 96.4153C60.0459 96.6487 59.9683 96.8042 59.8131 96.9598C59.5026 97.1931 59.3474 97.2709 59.1145 97.2709Z" fill="#C2B6FF"/>
<path d="M52.3663 77.7778C51.9782 77.7778 51.6676 77.4669 51.5901 77.078C51.5901 76.9226 51.5125 76.7671 51.5125 76.6115C51.4349 76.1451 51.4349 75.6786 51.2795 75.0566C50.0376 70.7801 47.6314 64.6378 44.6817 61.3723C44.0606 60.8281 43.2844 60.5948 42.6635 60.3616C42.2754 60.2061 42.0425 59.8174 42.1201 59.4285C42.2754 59.0398 42.6635 58.8066 43.0517 58.8842C43.7503 59.1176 44.8368 59.5063 45.7684 60.2061C45.846 60.2838 45.846 60.2838 45.9236 60.3616C48.7181 63.5493 51.1244 69.2252 52.4441 73.5016C52.8322 72.1797 53.3754 70.547 53.9187 68.992C54.4622 67.5146 55.1608 66.2706 55.8595 65.1043C56.0922 64.7156 56.5579 64.6378 56.946 64.8712C57.3341 65.1043 57.4119 65.571 57.1789 65.9597C56.4803 66.9704 55.937 68.1367 55.3936 69.5363C54.3068 72.2575 53.5306 75.3675 53.2203 76.3006C53.1425 76.6893 53.1425 76.8449 53.1425 76.8449C53.1425 77.3891 52.8322 77.7778 52.3663 77.7778C52.4441 77.7778 52.4441 77.7778 52.3663 77.7778Z" fill="#C2B6FF"/>
<path d="M91.152 44.2964C93.4902 41.7206 95.2048 38.1299 95.2048 34.2272C95.2048 26.4216 88.7358 20.0989 80.9416 20.0989C78.9931 20.0989 77.1225 20.4892 75.4079 21.1917C75.9535 19.6305 76.2652 17.9133 76.2652 16.196C76.2652 7.60982 69.3284 0.584717 60.6771 0.584717C54.9095 0.584717 49.9212 3.70698 47.1933 8.39039C44.4654 5.03394 40.3344 2.92641 35.736 2.92641C27.7081 2.92641 21.7067 9.32705 20.9272 17.2888C16.2508 18.6939 11.5744 23.5335 11.5744 29.3876C11.5744 31.4171 12.042 33.2904 12.8994 34.9296C5.96263 35.7882 0.584717 41.7206 0.584717 48.9019C0.584717 56.6294 6.97587 62.952 14.692 62.952C15.0038 62.952 15.4714 62.952 15.4714 62.874C16.2508 68.572 20.6155 73.0993 26.3832 73.0993C31.2155 73.0993 35.3463 69.9771 36.7492 65.5278C36.9052 64.9814 37.0609 64.435 37.1389 63.8106C37.1389 63.7325 37.1389 63.8106 37.1389 63.7325C37.2169 63.1861 37.2169 62.6397 37.2169 62.1715C37.2169 59.6736 36.3596 57.3319 34.9566 55.5366C37.0609 57.4099 39.789 58.6588 42.7506 58.9711C43.2182 59.049 43.6081 59.2052 44.0757 59.2052L44.2315 59.8297C47.8949 59.8297 51.1683 58.1124 53.6623 55.8489C53.5845 56.3171 53.5845 56.3952 53.5845 56.8635C53.5845 59.5956 54.3639 62.3276 55.6108 64.5132C55.8448 64.9034 56.0785 65.0596 56.3124 65.4498C57.7933 67.5572 60.7549 69.4307 63.6387 70.5235L64.574 71.226C64.652 71.226 64.7299 71.0699 64.8079 71.0699C65.1976 71.1479 65.5872 71.226 65.9769 71.304C66.0549 71.304 66.0549 71.304 66.1329 71.304C66.8344 71.3822 67.6138 71.4602 68.3931 71.4602C72.9138 71.4602 76.8888 69.4307 79.6167 66.3085C79.6167 66.3085 79.6167 66.3085 79.6947 66.3085C81.6432 67.5572 83.9814 68.3379 86.4754 68.3379C93.3342 68.3379 99.0239 62.7958 99.0239 55.9268C99.1019 50.619 95.8284 46.0917 91.152 44.2964Z" fill="#9585E5"/>
<path d="M26.5211 74.0741C20.8269 74.0741 16.0686 69.8591 14.9766 63.9269C14.8986 63.9269 14.8206 63.9269 14.8206 63.9269C6.63027 63.9269 0 57.2922 0 49.0965C0 41.9936 5.0702 35.9053 12.0125 34.5784C11.3885 33.0172 11.0765 31.3 11.0765 29.5828C11.0765 23.4164 15.8346 18.499 20.5148 16.9379C21.5288 8.42992 28.0031 2.34164 36.0374 2.34164C40.3277 2.34164 44.4618 4.1369 47.348 7.2591C50.3901 2.73193 55.4602 0 60.9205 0C69.9688 0 77.3012 7.33716 77.3012 16.3915C77.3012 17.6404 77.145 18.9673 76.8331 20.1382C78.237 19.748 79.7191 19.5136 81.2012 19.5136C89.4696 19.5136 96.1778 26.2265 96.1778 34.4222C96.1778 37.9347 94.9298 41.369 92.5897 44.2571C97.1138 46.4427 100 51.048 100 56.1994C100 63.4587 93.9938 69.3908 86.5834 69.3908C84.2435 69.3908 81.9813 68.7663 79.9532 67.5955C76.9891 70.7957 72.855 72.591 68.5647 72.591C67.3168 72.591 66.0686 72.4349 64.8207 72.1226C64.7425 72.1226 64.6645 72.1226 64.5086 72.0446C60.9984 71.108 57.9563 69.0006 55.8503 66.0345L55.6942 65.8784C55.4602 65.5661 55.3043 65.332 55.0702 64.9417C53.6661 62.6 52.9641 60.1023 52.8862 57.4483C50.8581 59.0095 47.816 60.7267 44.2277 60.7267C43.8378 60.7267 43.5257 60.6485 43.2136 60.6485C43.0577 60.6485 42.9018 60.5706 42.7456 60.5706C41.0296 60.4144 39.2355 59.7119 37.4415 58.6193C37.9096 59.868 38.0655 61.117 38.0655 62.4439C38.0655 62.9903 37.9875 63.6146 37.9095 64.161C37.8316 64.7856 37.6754 65.4099 37.4415 66.0345C36.0374 70.7957 31.5912 74.0741 26.5211 74.0741ZM16.3807 63.0684C17.1607 68.6101 21.2949 72.5131 26.5211 72.5131C30.9673 72.5131 34.7895 69.7029 36.1934 65.4881C36.3495 64.9417 36.5055 64.3953 36.5834 63.8489C36.6614 63.3805 36.6614 62.8341 36.6614 62.3659C36.6614 60.1023 35.9595 57.9947 34.5554 56.1994C34.3214 55.8873 34.3214 55.4189 34.6333 55.1848C34.9454 54.8725 35.4135 54.8725 35.6474 55.1848C38.2214 57.4483 40.7175 58.7752 43.0577 59.0096C43.2136 59.0096 43.4478 59.0875 43.6037 59.0875C43.9158 59.1655 44.1497 59.1655 44.3838 59.1655C48.44 59.1655 51.716 56.6678 53.3542 55.1848C53.5881 54.9507 53.9782 54.9507 54.2121 55.0287C54.5242 55.1848 54.6801 55.4971 54.6801 55.8092C54.6801 56.1214 54.6801 56.5117 54.6801 56.902V57.0581C54.6801 59.5559 55.3043 61.8975 56.6302 64.083C56.7864 64.3953 56.9423 64.6294 57.1762 64.8635L57.3324 65.0197C59.2043 67.6735 62.0125 69.6249 65.1326 70.4055H65.2105H65.2887C66.3807 70.7177 67.5507 70.7957 68.7207 70.7957C72.777 70.7957 76.677 69.0006 79.3292 65.8784C79.5632 65.5661 80.0312 65.4881 80.3433 65.7222C82.2152 66.9711 84.3994 67.5955 86.6614 67.5955C93.2136 67.5955 98.5179 62.3659 98.5179 55.9653C98.5179 51.048 95.6318 46.7548 91.1076 45.0376C90.7957 44.9596 90.6396 44.6474 90.6396 44.3351C90.6396 44.1791 90.7175 43.9448 90.8737 43.7887C93.3698 41.0569 94.7739 37.6224 94.7739 34.1881C94.7739 26.8509 88.7676 20.8407 81.3573 20.8407C79.5632 20.8407 77.691 21.231 76.131 21.8554C75.8191 22.0115 75.507 21.9333 75.2731 21.6992C75.039 21.4651 74.961 21.1528 75.039 20.8407C75.585 19.3577 75.8191 17.7185 75.8191 16.0793C75.8191 7.88355 69.1887 1.24887 60.9984 1.24887C55.6942 1.24887 50.7801 4.05885 48.2058 8.66409C48.0499 8.89825 47.816 9.05437 47.5819 9.05437C47.348 9.05437 47.1138 8.97632 46.8799 8.74214C44.2277 5.46384 40.2497 3.59053 36.0374 3.59053C28.7051 3.59053 22.777 9.36659 21.9969 17.2501C21.9969 17.5623 21.763 17.8746 21.4509 17.9526C17.1607 19.2795 12.6365 23.8068 12.6365 29.2706C12.6365 31.0659 13.0265 32.861 13.8846 34.5002C13.9626 34.7345 13.9626 34.9686 13.8846 35.2027C13.8066 35.4368 13.5725 35.593 13.2605 35.593C6.63027 36.4517 1.63807 42.0715 1.63807 48.7842C1.63807 56.1214 7.5663 62.0536 14.8986 62.0536C15.0546 62.0536 15.4446 62.0536 15.5226 62.0536C15.8346 62.2097 16.3807 62.6 16.3807 63.0684Z" fill="#9585E5"/>
<path d="M20.4987 36.8421C20.4219 36.8421 20.2685 36.8421 20.1919 36.7663C18.5046 36.0082 16.664 35.6292 14.7467 35.6292C14.1331 35.6292 13.673 35.6292 13.1361 35.705C12.7526 35.7809 12.3692 35.4776 12.2925 35.0228C12.2158 34.6436 12.5226 34.2647 12.9827 34.1889C13.5196 34.113 14.1331 34.113 14.7467 34.113C16.8941 34.113 18.8881 34.5678 20.8053 35.4017C21.1887 35.5534 21.3422 36.0082 21.1887 36.3873C21.0355 36.6904 20.8053 36.8421 20.4987 36.8421Z" fill="#9585E5"/>
<path d="M15.5927 63.7427C15.2037 63.7427 14.8147 63.4321 14.8147 63.0442C14.8147 62.5785 15.1259 62.268 15.5149 62.1904C18.0047 62.0352 20.3387 61.1814 22.3617 59.7844C22.6728 59.5516 23.2174 59.6292 23.451 59.9397C23.6843 60.2501 23.6065 60.7933 23.2954 61.0263C21.0391 62.5785 18.3937 63.5099 15.5927 63.7427C15.5927 63.7427 15.6705 63.7427 15.5927 63.7427Z" fill="#9585E5"/>
<path d="M30.9371 19.6881C30.7806 19.6881 30.6238 19.6109 30.5455 19.5337C27.8049 17.7583 24.4381 17.218 21.2275 18.0671C20.8361 18.1442 20.3663 17.9127 20.288 17.5267C20.2096 17.1408 20.4445 16.6776 20.8361 16.6004C24.4381 15.6741 28.2747 16.2917 31.4069 18.2986C31.7985 18.5302 31.8767 18.9934 31.6418 19.3793C31.4069 19.6109 31.172 19.6881 30.9371 19.6881Z" fill="#9585E5"/>
<path d="M79.7569 67.2515C79.6019 67.2515 79.4471 67.1704 79.3697 67.0895C78.0538 66.1983 76.8923 65.064 75.9635 63.8488C75.7311 63.5246 75.8085 62.9575 76.1183 62.7144C76.428 62.4714 76.9699 62.5525 77.2021 62.8764C78.0538 64.0107 79.06 64.9831 80.1438 65.7932C80.5309 66.0363 80.6083 66.5222 80.3762 66.9275C80.2988 67.0895 80.0664 67.2515 79.7569 67.2515Z" fill="#9585E5"/>
<path d="M90.9912 45.2242C90.9138 45.2242 90.8364 45.2242 90.7592 45.1398C89.4446 44.6329 88.13 44.3795 86.7381 44.3795C86.2742 44.3795 85.9648 44.0415 85.9648 43.5347C85.9648 43.0279 86.2742 42.6901 86.7381 42.6901C88.2847 42.6901 89.8311 43.0279 91.3003 43.6193C91.6871 43.7881 91.919 44.2949 91.7643 44.7174C91.5323 45.0552 91.3003 45.2242 90.9912 45.2242Z" fill="#9585E5"/>
<path d="M49.576 13.4502C49.2781 13.4502 48.9805 13.2881 48.9062 12.9639C48.3851 11.5047 47.6409 10.1266 46.7477 8.91056C46.5245 8.58631 46.5245 8.01885 46.8222 7.77565C47.1198 7.53245 47.6409 7.53245 47.8641 7.85672C48.9062 9.23483 49.6502 10.694 50.2458 12.3153C50.3945 12.7207 50.1713 13.2071 49.7992 13.3692C49.7247 13.3692 49.6502 13.4502 49.576 13.4502Z" fill="#9585E5"/>
</g>
<defs>
<clipPath id="clip0_101_17">
<rect width="100" height="98" fill="white"/>
</clipPath>
</defs>
</svg>
